# xmcd CD database file
#
# Track frame offsets:
#	150
#	15954
#	33304
#	48459
#	69294
#	86649
#	103893
#	120278
#	137408
#	154175
#
# Disc length: 2225 seconds
#
# Revision: 0
# Processed by: cddbd v1.5.2PL0 Copyright (c) Steve Scherf et al.
# Submitted via: CDex 1.51
#
DISCID=7208af0a
DTITLE=Shane Hogan - Working Class Country
DYEAR=2002
DGENRE=Country
TTITLE0=Double-Blank
TTITLE1=Rebel Blood
TTITLE2=Thank God For Friday
TTITLE3=d'ARCY Doyle
TTITLE4=It's Bloody Hard Yakka
TTITLE5=A Mothers Love
TTITLE6=Under The Bonnet Again
TTITLE7=I'll Never Make It From Here
TTITLE8=Working Class Man
TTITLE9=Way Back When
EXTD=YEAR: 2002
EXTT0=
EXTT1=
EXTT2=
EXTT3=
EXTT4=
EXTT5=
EXTT6=
EXTT7=
EXTT8=
EXTT9=
PLAYORDER=
